<?xml version="1.0" encoding="UTF-8" standalone="no"?>
<!-- Created with Inkscape (http://www.inkscape.org/) -->

<svg
   xmlns:dc="http://purl.org/dc/elements/1.1/"
   xmlns:cc="http://creativecommons.org/ns#"
   xmlns:rdf="http://www.w3.org/1999/02/22-rdf-syntax-ns#"
   xmlns:svg="http://www.w3.org/2000/svg"
   xmlns="http://www.w3.org/2000/svg"
   xmlns:sodipodi="http://sodipodi.sourceforge.net/DTD/sodipodi-0.dtd"
   xmlns:inkscape="http://www.inkscape.org/namespaces/inkscape"
   width="244.82382"
   height="80"
   id="svg2"
   version="1.1"
   inkscape:version="0.48.4 r9939"
   sodipodi:docname="logo.svg">
  <defs
     id="defs4" />
  <sodipodi:namedview
     id="base"
     pagecolor="#ffffff"
     bordercolor="#666666"
     borderopacity="1.0"
     inkscape:pageopacity="0.0"
     inkscape:pageshadow="2"
     inkscape:zoom="7.9999999"
     inkscape:cx="140.79927"
     inkscape:cy="4.8485544"
     inkscape:document-units="px"
     inkscape:current-layer="text2987-1"
     showgrid="true"
     inkscape:snap-bbox="true"
     inkscape:bbox-paths="true"
     inkscape:bbox-nodes="true"
     inkscape:snap-bbox-edge-midpoints="true"
     inkscape:snap-bbox-midpoints="true"
     inkscape:object-paths="true"
     inkscape:snap-intersection-paths="true"
     inkscape:object-nodes="true"
     inkscape:snap-smooth-nodes="true"
     inkscape:snap-midpoints="true"
     inkscape:snap-object-midpoints="true"
     inkscape:snap-center="true"
     inkscape:snap-grids="true"
     inkscape:snap-page="true"
     inkscape:window-width="1366"
     inkscape:window-height="706"
     inkscape:window-x="-8"
     inkscape:window-y="-8"
     inkscape:window-maximized="1"
     fit-margin-top="0"
     fit-margin-left="0"
     fit-margin-right="0"
     fit-margin-bottom="0">
    <inkscape:grid
       type="xygrid"
       id="grid2985"
       empspacing="5"
       visible="true"
       enabled="true"
       snapvisiblegridlinesonly="true"
       originx="-2.588089px"
       originy="-21.261481px" />
  </sodipodi:namedview>
  <metadata
     id="metadata7">
    <rdf:RDF>
      <cc:Work
         rdf:about="">
        <dc:format>image/svg+xml</dc:format>
        <dc:type
           rdf:resource="http://purl.org/dc/dcmitype/StillImage" />
        <dc:title></dc:title>
      </cc:Work>
    </rdf:RDF>
  </metadata>
  <g
     inkscape:groupmode="layer"
     id="layer2"
     inkscape:label="Icon"
     transform="translate(4.2968752e-8,39.901375)" />
  <g
     inkscape:label="Layer 1"
     inkscape:groupmode="layer"
     id="layer1"
     transform="translate(-2.588089,-951.1007)"
     style="display:inline">
    <g
       style="font-size:40px;font-style:normal;font-weight:normal;line-height:150%;letter-spacing:0px;word-spacing:0px;fill:#202020;fill-opacity:1;stroke:none;font-family:Sans"
       id="text2987">
      <path
         d="m 103.49945,975.81778 5.20834,8.25311 5.25,-8.25311 1.176,0 -5.87998,9.28171 0,5.62811 -1.07089,0 0,-5.66977 -5.85946,-9.24005 z"
         style="font-size:21px;font-variant:normal;font-weight:300;font-stretch:normal;text-align:start;line-height:150%;letter-spacing:3.5px;writing-mode:lr-tb;text-anchor:start;fill:#202020;font-family:Raleway;-inkscape-font-specification:Raleway Light"
         id="path3094" />
      <path
         d="m 120.81467,990.7276 0,-14.90982 1.07089,0 0,13.94403 8.90423,0 0,0.96579 z"
         style="font-size:21px;font-variant:normal;font-weight:300;font-stretch:normal;text-align:start;line-height:150%;letter-spacing:3.5px;writing-mode:lr-tb;text-anchor:start;fill:#202020;font-family:Raleway;-inkscape-font-specification:Raleway Light"
         id="path3096" />
      <path
         d="m 146.67523,989.76181 0,0.96579 -9.93283,0 0,-14.90982 9.74442,0 0,0.96579 -8.67353,0 0,5.85883 7.58149,0 0,0.92413 -7.58149,0 0,6.19528 z"
         style="font-size:21px;font-variant:normal;font-weight:300;font-stretch:normal;text-align:start;line-height:150%;letter-spacing:3.5px;writing-mode:lr-tb;text-anchor:start;fill:#202020;font-family:Raleway;-inkscape-font-specification:Raleway Light"
         id="path3098" />
      <path
         d="m 153.16232,990.7276 0,-14.88931 1.0709,0 0,14.88931 z"
         style="font-size:21px;font-variant:normal;font-weight:300;font-stretch:normal;text-align:start;line-height:150%;letter-spacing:3.5px;writing-mode:lr-tb;text-anchor:start;fill:#202020;font-family:Raleway;-inkscape-font-specification:Raleway Light"
         id="path3100" />
      <path
         d="m 172.6911,988.41791 c -1.44197,1.60986 -3.1078,2.41479 -4.9975,2.41479 -1.0083,0 -1.9429,-0.21704 -2.8038,-0.65112 -0.8609,-0.43408 -1.5994,-1.00809 -2.21548,-1.72202 -0.61609,-0.71392 -1.0991,-1.5259 -1.44901,-2.43594 -0.34991,-0.91003 -0.52487,-1.83395 -0.52487,-2.77176 0,-0.98009 0.17143,-1.92516 0.5143,-2.8352 0.34286,-0.91003 0.81881,-1.71506 1.42785,-2.41512 0.60904,-0.70003 1.33012,-1.25652 2.16326,-1.66946 0.83312,-0.41292 1.74657,-0.61939 2.74035,-0.6194 0.75622,10e-6 1.4318,0.0806 2.02675,0.2416 0.59493,0.16109 1.12343,0.38507 1.58551,0.67196 0.46206,0.28691 0.86452,0.62988 1.2074,1.02891 0.34285,0.39906 0.63327,0.83656 0.87126,1.3125 l -0.86069,0.52487 c -0.51826,-0.98009 -1.19384,-1.6906 -2.02674,-2.13153 -0.83293,-0.4409 -1.77447,-0.66136 -2.82464,-0.66137 -0.88184,10e-6 -1.67619,0.18896 -2.38307,0.56684 -0.70688,0.37792 -1.31239,0.87491 -1.81654,1.49099 -0.50415,0.6161 -0.88921,1.31614 -1.15517,2.10012 -0.26596,0.78401 -0.39894,1.58894 -0.39894,2.4148 0,0.88227 0.15402,1.71892 0.46207,2.50996 0.30804,0.79105 0.73155,1.48757 1.27052,2.08956 0.53897,0.60199 1.17247,1.08147 1.9005,1.43843 0.72802,0.35696 1.51202,0.53545 2.35199,0.53544 0.91002,10e-6 1.76751,-0.20999 2.57245,-0.62997 0.80492,-0.41998 1.59233,-1.07794 2.36224,-1.97388 l 0,-2.89801 -3.38058,0 0,-0.86133 4.32586,0 0,7.24503 -0.94528,0 z"
         style="font-size:21px;font-variant:normal;font-weight:300;font-stretch:normal;text-align:start;line-height:150%;letter-spacing:3.5px;writing-mode:lr-tb;text-anchor:start;fill:#202020;font-family:Raleway;-inkscape-font-specification:Raleway Light"
         id="path3102" />
      <path
         d="m 191.93341,975.81778 0,14.90982 -1.07153,0 0,-7.13992 -9.40796,0 0,7.13992 -1.07089,0 0,-14.90982 1.07089,0 0,6.80411 9.40796,0 0,-6.80411 z"
         style="font-size:21px;font-variant:normal;font-weight:300;font-stretch:normal;text-align:start;line-height:150%;letter-spacing:3.5px;writing-mode:lr-tb;text-anchor:start;fill:#202020;font-family:Raleway;-inkscape-font-specification:Raleway Light"
         id="path3104" />
    </g>
    <g
       style="font-size:40px;font-style:normal;font-weight:normal;text-align:start;line-height:150%;letter-spacing:0px;word-spacing:0px;text-anchor:start;opacity:1;fill:#99999f;fill-opacity:0.94117647;stroke:none;font-family:Sans"
       id="text2987-1">
      <path
         d="m 10.947159,1023.4487 0,-7.9821 -3.6399843,6.227 -0.4161682,0 -3.6399842,-6.227 0,7.9821 -0.6629333,0 0,-9.2299 0.6629333,0 3.8482666,6.604 3.8478701,-6.604 0.662933,0 0,9.2299 z"
         style="font-size:13px;font-variant:normal;font-weight:300;font-stretch:normal;line-height:150%;letter-spacing:4px;writing-mode:lr-tb;fill:#99999f;font-family:Raleway;-inkscape-font-specification:Raleway Light;fill-opacity:0.94117647"
         id="path3053" />
      <path
         d="m 18.064651,1023.4487 0,-9.2172 0.662934,0 0,9.2172 z"
         style="font-size:13px;font-variant:normal;font-weight:300;font-stretch:normal;line-height:150%;letter-spacing:4px;writing-mode:lr-tb;fill:#99999f;font-family:Raleway;-inkscape-font-specification:Raleway Light;fill-opacity:0.94117647"
         id="path3055" />
      <path
         d="m 25.825241,1015.4666 0,7.9821 -0.662933,0 0,-9.2299 0.507019,0 6.474212,8.125 0,-8.1123 0.662934,0 0,9.2172 -0.610962,0 z"
         style="font-size:13px;font-variant:normal;font-weight:300;font-stretch:normal;line-height:150%;letter-spacing:4px;writing-mode:lr-tb;fill:#99999f;font-family:Raleway;-inkscape-font-specification:Raleway Light;fill-opacity:0.94117647"
         id="path3057" />
      <path
         d="m 39.242386,1023.4487 0,-9.2172 0.662933,0 0,9.2172 z"
         style="font-size:13px;font-variant:normal;font-weight:300;font-stretch:normal;line-height:150%;letter-spacing:4px;writing-mode:lr-tb;fill:#99999f;font-family:Raleway;-inkscape-font-specification:Raleway Light;fill-opacity:0.94117647"
         id="path3059" />
      <path
         d="m 54.699112,1023.4487 0,-7.9821 -3.639984,6.227 -0.416168,0 -3.639985,-6.227 0,7.9821 -0.662933,0 0,-9.2299 0.662933,0 3.848267,6.604 3.84787,-6.604 0.662933,0 0,9.2299 z"
         style="font-size:13px;font-variant:normal;font-weight:300;font-stretch:normal;line-height:150%;letter-spacing:4px;writing-mode:lr-tb;fill:#99999f;font-family:Raleway;-inkscape-font-specification:Raleway Light;fill-opacity:0.94117647"
         id="path3061" />
      <path
         d="m 60.828751,1023.4487 3.926025,-9.2299 0.545898,0 3.926026,9.2299 -0.714905,0 -1.286987,-3.0421 -4.407257,0 -1.286988,3.0421 z m 4.198974,-8.4241 -2.053863,4.8361 4.068847,0 z"
         style="font-size:13px;font-variant:normal;font-weight:300;font-stretch:normal;line-height:150%;letter-spacing:4px;writing-mode:lr-tb;fill:#99999f;font-family:Raleway;-inkscape-font-specification:Raleway Light;fill-opacity:0.94117647"
         id="path3063" />
      <path
         d="m 74.677933,1023.4487 0,-9.2299 0.662933,0 0,8.6321 5.512146,0 0,0.5978 z"
         style="font-size:13px;font-variant:normal;font-weight:300;font-stretch:normal;line-height:150%;letter-spacing:4px;writing-mode:lr-tb;fill:#99999f;font-family:Raleway;-inkscape-font-specification:Raleway Light;fill-opacity:0.94117647"
         id="path3065" />
      <path
         d="m 86.588089,1023.4487 0,-9.2172 0.662933,0 0,9.2172 z"
         style="font-size:13px;font-variant:normal;font-weight:300;font-stretch:normal;line-height:150%;letter-spacing:4px;writing-mode:lr-tb;fill:#99999f;fill-opacity:0.94117647;font-family:Raleway;-inkscape-font-specification:Raleway Light"
         id="path3067"
         inkscape:connector-curvature="0" />
      <path
         d="m 98.864059,1015.7526 c -0.598008,-0.6673 -1.443039,-1.0009 -2.535095,-1.001 -0.90137,10e-5 -1.557889,0.1712 -1.969558,0.5136 -0.411674,0.3424 -0.61751,0.8039 -0.617508,1.3844 -2e-6,0.2946 0.05204,0.5417 0.156112,0.7411 0.104074,0.1994 0.2666,0.3663 0.48758,0.5007 0.220975,0.1343 0.502652,0.2513 0.845031,0.3509 0.342374,0.1 0.747499,0.1971 1.215378,0.2926 0.502783,0.1039 0.953466,0.2187 1.352051,0.3443 0.398574,0.1256 0.738702,0.2838 1.020386,0.4745 0.28167,0.1907 0.49835,0.4247 0.650039,0.702 0.151676,0.2773 0.227517,0.6196 0.227524,1.0269 -7e-6,0.4074 -0.08015,0.7627 -0.240417,1.0661 -0.160286,0.3033 -0.385627,0.5568 -0.676026,0.7605 -0.290411,0.2036 -0.637085,0.3575 -1.040024,0.4616 -0.402949,0.104 -0.85145,0.1561 -1.345504,0.1561 -1.438541,0 -2.656231,-0.4594 -3.653076,-1.3782 l 0.351104,-0.5329 c 0.389851,0.4074 0.866454,0.7302 1.42981,0.9685 0.563351,0.2383 1.196133,0.3574 1.898346,0.3574 0.805883,0 1.43635,-0.1473 1.891403,-0.4419 0.455041,-0.2947 0.682565,-0.741 0.682571,-1.339 -6e-6,-0.3034 -0.05852,-0.5612 -0.175552,-0.7736 -0.117041,-0.2124 -0.296891,-0.3966 -0.539551,-0.5525 -0.242671,-0.1559 -0.543854,-0.2902 -0.903549,-0.4028 -0.359705,-0.1127 -0.782221,-0.2212 -1.267548,-0.3254 -0.494062,-0.1039 -0.929537,-0.2143 -1.306427,-0.3312 -0.376894,-0.1169 -0.6954,-0.2642 -0.95552,-0.442 -0.260123,-0.1777 -0.455181,-0.3922 -0.585175,-0.6435 -0.129995,-0.2512 -0.194993,-0.5676 -0.194992,-0.949 -10e-7,-0.416 0.08021,-0.7843 0.240616,-1.105 0.160409,-0.3207 0.383569,-0.5916 0.669479,-0.8125 0.285907,-0.221 0.628218,-0.3878 1.026932,-0.5005 0.398709,-0.1127 0.84073,-0.169 1.326065,-0.169 0.597998,0 1.131002,0.089 1.599015,0.2664 0.468001,0.1776 0.892698,0.4485 1.274093,0.8127 z"
         style="font-size:13px;font-variant:normal;font-weight:300;font-stretch:normal;line-height:150%;letter-spacing:4px;writing-mode:lr-tb;fill:#99999f;font-family:Raleway;-inkscape-font-specification:Raleway Light;fill-opacity:0.94117647"
         id="path3069" />
      <path
         d="m 111.89043,1014.8167 -3.38013,0 0,8.632 -0.66293,0 0,-8.632 -3.38013,0 0,-0.5979 7.42319,0 z"
         style="font-size:13px;font-variant:normal;font-weight:300;font-stretch:normal;line-height:150%;letter-spacing:4px;writing-mode:lr-tb;fill:#99999f;font-family:Raleway;-inkscape-font-specification:Raleway Light;fill-opacity:0.94117647"
         id="path3071" />
      <path
         d="m 117.38887,1023.4487 0,-9.2172 0.66293,0 0,9.2172 z"
         style="font-size:13px;font-variant:normal;font-weight:300;font-stretch:normal;line-height:150%;letter-spacing:4px;writing-mode:lr-tb;fill:#99999f;font-family:Raleway;-inkscape-font-specification:Raleway Light;fill-opacity:0.94117647"
         id="path3073" />
      <path
         d="m 123.87556,1018.7689 c 0,-0.5549 0.0975,-1.1074 0.29259,-1.6577 0.19506,-0.5503 0.47892,-1.0421 0.85158,-1.4754 0.37266,-0.4334 0.82982,-0.7865 1.37149,-1.0595 0.54166,-0.2729 1.1591,-0.4094 1.85233,-0.4094 0.82333,0 1.52534,0.1884 2.10603,0.5653 0.58067,0.3769 1.00973,0.8601 1.28718,1.4497 l -0.54629,0.3118 c -0.15579,-0.3206 -0.34424,-0.5892 -0.56534,-0.806 -0.22112,-0.2167 -0.45948,-0.3923 -0.7151,-0.5266 -0.25563,-0.1344 -0.5221,-0.2318 -0.79941,-0.2924 -0.27732,-0.061 -0.55033,-0.091 -0.81905,-0.091 -0.58927,0 -1.10925,0.1192 -1.55993,0.3575 -0.45069,0.2383 -0.83201,0.5481 -1.14397,0.9295 -0.31196,0.3814 -0.54815,0.8126 -0.70856,1.2936 -0.16041,0.4809 -0.24061,0.9641 -0.24061,1.4494 0,0.5459 0.0953,1.0659 0.28604,1.5599 0.19069,0.4941 0.45068,0.9296 0.77997,1.3067 0.32928,0.377 0.71926,0.6782 1.16995,0.9035 0.45068,0.2254 0.93601,0.338 1.45599,0.338 0.27744,0 0.5613,-0.035 0.85158,-0.1041 0.29027,-0.069 0.57195,-0.1778 0.84503,-0.3251 0.27308,-0.1474 0.52659,-0.3359 0.76053,-0.5656 0.23393,-0.2297 0.42892,-0.5004 0.58498,-0.8123 l 0.55899,0.273 c -0.15606,0.3467 -0.36626,0.6544 -0.6306,0.923 -0.26436,0.2685 -0.56118,0.4938 -0.89046,0.6758 -0.32929,0.182 -0.67808,0.3185 -1.04637,0.4096 -0.3683,0.091 -0.73018,0.1367 -1.08565,0.1367 -0.63265,0 -1.21115,-0.1387 -1.73549,-0.4162 -0.52434,-0.2774 -0.97714,-0.6393 -1.3584,-1.0856 -0.38125,-0.4463 -0.67807,-0.9533 -0.89045,-1.5209 -0.21239,-0.5676 -0.31858,-1.146 -0.31858,-1.7353 z"
         style="font-size:13px;font-variant:normal;font-weight:300;font-stretch:normal;line-height:150%;letter-spacing:4px;writing-mode:lr-tb;fill:#99999f;font-family:Raleway;-inkscape-font-specification:Raleway Light;fill-opacity:0.94117647"
         id="path3075" />
      <path
         d="m 151.24663,1023.4487 -1.18305,-1.235 c -0.35521,0.4161 -0.77336,0.7476 -1.25445,0.9946 -0.48111,0.247 -1.00756,0.3706 -1.57938,0.3706 -0.39012,0 -0.75848,-0.056 -1.10509,-0.169 -0.34661,-0.1127 -0.65427,-0.2752 -0.92298,-0.4876 -0.26872,-0.2124 -0.48111,-0.4681 -0.63715,-0.7671 -0.15605,-0.299 -0.23407,-0.6392 -0.23407,-1.0206 0,-0.3118 0.0542,-0.5977 0.16266,-0.8577 0.10844,-0.26 0.25582,-0.5027 0.44215,-0.728 0.18633,-0.2253 0.40294,-0.4355 0.64984,-0.6306 0.2469,-0.1951 0.50907,-0.3879 0.78652,-0.5786 -0.2428,-0.26 -0.44864,-0.4961 -0.61751,-0.7084 -0.16888,-0.2122 -0.30753,-0.4051 -0.41597,-0.5784 -0.10844,-0.1734 -0.18646,-0.3403 -0.23407,-0.5007 -0.0476,-0.1604 -0.0714,-0.3185 -0.0714,-0.4743 0,-0.2687 0.0585,-0.5223 0.17555,-0.7607 0.11703,-0.2384 0.27738,-0.4486 0.48103,-0.6306 0.20366,-0.182 0.44196,-0.3249 0.71491,-0.4289 0.27295,-0.1039 0.56983,-0.1559 0.89066,-0.1559 0.29463,0 0.56976,0.045 0.82539,0.1365 0.25562,0.091 0.4766,0.2145 0.66293,0.3705 0.18633,0.1561 0.33146,0.3424 0.43541,0.559 0.10394,0.2166 0.15591,0.4506 0.15592,0.7018 -1e-5,0.26 -0.0564,0.5049 -0.16901,0.7346 -0.11268,0.2297 -0.26647,0.4442 -0.4614,0.6435 -0.19493,0.1993 -0.4202,0.3943 -0.67582,0.5849 -0.25563,0.1907 -0.52653,0.3771 -0.8127,0.559 l 2.78226,2.912 c 0.19915,-0.3465 0.35076,-0.719 0.45485,-1.1178 0.10406,-0.3987 0.1561,-0.819 0.15611,-1.261 l 0.55899,0 c -1e-5,0.52 -0.0672,1.0162 -0.20154,1.4886 -0.13437,0.4723 -0.32718,0.9034 -0.57843,1.2933 l 1.67697,1.742 z m -3.95181,-0.403 c 0.49379,0 0.94222,-0.1105 1.3453,-0.3315 0.40307,-0.221 0.75193,-0.5178 1.04657,-0.8905 l -2.93817,-3.0941 c -0.25126,0.1736 -0.48309,0.3491 -0.69547,0.5267 -0.21238,0.1776 -0.40089,0.3639 -0.56553,0.559 -0.16465,0.1951 -0.29246,0.4031 -0.38344,0.624 -0.091,0.221 -0.13648,0.4615 -0.13647,0.7215 -1e-5,0.3118 0.0694,0.5848 0.20808,0.8188 0.13872,0.2341 0.31857,0.4313 0.53955,0.5916 0.22098,0.1602 0.47012,0.2794 0.74744,0.3574 0.27731,0.078 0.55469,0.1171 0.83214,0.1171 z m -1.65119,-6.9809 c 0,0.1127 0.0151,0.2254 0.0454,0.338 0.0303,0.1127 0.0909,0.2449 0.1819,0.3966 0.091,0.1517 0.21667,0.3228 0.37709,0.5133 0.1604,0.1906 0.3706,0.4202 0.6306,0.6889 0.2859,-0.1906 0.54371,-0.3705 0.77342,-0.5395 0.2297,-0.169 0.42687,-0.3358 0.59152,-0.5005 0.16464,-0.1646 0.29245,-0.3336 0.38344,-0.507 0.091,-0.1734 0.13647,-0.3596 0.13647,-0.5588 0,-0.3639 -0.13866,-0.6651 -0.41597,-0.9035 -0.27731,-0.2385 -0.62822,-0.3577 -1.05271,-0.3577 -0.23408,0 -0.45082,0.039 -0.65024,0.117 -0.19943,0.078 -0.37491,0.1821 -0.52646,0.3121 -0.15155,0.13 -0.26852,0.2817 -0.35091,0.455 -0.0824,0.1734 -0.12358,0.3554 -0.12358,0.5461 z"
         style="font-size:13px;font-variant:normal;font-weight:300;font-stretch:normal;line-height:150%;letter-spacing:4px;writing-mode:lr-tb;fill:#99999f;font-family:Raleway;-inkscape-font-specification:Raleway Light;fill-opacity:0.94117647"
         id="path3077" />
      <path
         d="m 171.03581,1022.8509 0,0.5978 -6.14889,0 0,-9.2299 6.03225,0 0,0.5979 -5.36932,0 0,3.6269 4.6933,0 0,0.5721 -4.6933,0 0,3.8352 z"
         style="font-size:13px;font-variant:normal;font-weight:300;font-stretch:normal;line-height:150%;letter-spacing:4px;writing-mode:lr-tb;fill:#99999f;font-family:Raleway;-inkscape-font-specification:Raleway Light;fill-opacity:0.94117647"
         id="path3079" />
      <path
         d="m 176.88496,1023.4487 0,-9.2299 0.66294,0 0,8.6321 5.51214,0 0,0.5978 z"
         style="font-size:13px;font-variant:normal;font-weight:300;font-stretch:normal;line-height:150%;letter-spacing:4px;writing-mode:lr-tb;fill:#99999f;font-family:Raleway;-inkscape-font-specification:Raleway Light;fill-opacity:0.94117647"
         id="path3081" />
      <path
         d="m 194.72722,1022.8509 0,0.5978 -6.1489,0 0,-9.2299 6.03226,0 0,0.5979 -5.36932,0 0,3.6269 4.6933,0 0,0.5721 -4.6933,0 0,3.8352 z"
         style="font-size:13px;font-variant:normal;font-weight:300;font-stretch:normal;line-height:150%;letter-spacing:4px;writing-mode:lr-tb;fill:#99999f;font-family:Raleway;-inkscape-font-specification:Raleway Light;fill-opacity:0.94117647"
         id="path3083" />
      <path
         d="m 207.40129,1022.0189 c -0.89265,0.9966 -1.92387,1.4949 -3.09369,1.4949 -0.62419,0 -1.20275,-0.1344 -1.73569,-0.4031 -0.53294,-0.2687 -0.9901,-0.624 -1.37149,-1.066 -0.38139,-0.4419 -0.68039,-0.9446 -0.897,-1.508 -0.21661,-0.5633 -0.32492,-1.1353 -0.32492,-1.7158 0,-0.6067 0.10612,-1.1918 0.31837,-1.7551 0.21225,-0.5634 0.50689,-1.0617 0.88392,-1.4951 0.37702,-0.4334 0.8234,-0.7778 1.33915,-1.0335 0.51575,-0.2556 1.08122,-0.3834 1.69641,-0.3834 0.46814,0 0.88636,0.05 1.25466,0.1495 0.36829,0.1 0.69546,0.2384 0.9815,0.416 0.28604,0.1776 0.53518,0.3899 0.74744,0.637 0.21224,0.247 0.39203,0.5178 0.53935,0.8125 l -0.5328,0.3249 c -0.32083,-0.6067 -0.73905,-1.0466 -1.25466,-1.3195 -0.51562,-0.273 -1.09848,-0.4095 -1.74858,-0.4095 -0.5459,0 -1.03764,0.117 -1.47523,0.3509 -0.4376,0.234 -0.81244,0.5417 -1.12453,0.923 -0.31209,0.3814 -0.55046,0.8148 -0.7151,1.3001 -0.16465,0.4854 -0.24697,0.9836 -0.24697,1.4949 0,0.5462 0.0953,1.0641 0.28604,1.5538 0.1907,0.4897 0.45287,0.9209 0.78652,1.2935 0.33365,0.3727 0.72581,0.6695 1.1765,0.8905 0.45068,0.2209 0.93601,0.3314 1.45599,0.3314 0.56335,0 1.09417,-0.13 1.59247,-0.39 0.49828,-0.2599 0.98573,-0.6672 1.46234,-1.2219 l 0,-1.794 -2.09274,0 0,-0.5332 2.67792,0 0,4.485 -0.58518,0 z"
         style="font-size:13px;font-variant:normal;font-weight:300;font-stretch:normal;line-height:150%;letter-spacing:4px;writing-mode:lr-tb;fill:#99999f;font-family:Raleway;-inkscape-font-specification:Raleway Light;fill-opacity:0.94117647"
         id="path3085" />
      <path
         d="m 213.00844,1023.4487 3.92602,-9.2299 0.5459,0 3.92603,9.2299 -0.71491,0 -1.28698,-3.0421 -4.40726,0 -1.28699,3.0421 z m 4.19897,-8.4241 -2.05386,4.8361 4.06885,0 z"
         style="font-size:13px;font-variant:normal;font-weight:300;font-stretch:normal;line-height:150%;letter-spacing:4px;writing-mode:lr-tb;fill:#99999f;font-family:Raleway;-inkscape-font-specification:Raleway Light;fill-opacity:0.94117647"
         id="path3087" />
      <path
         d="m 227.52055,1015.4666 0,7.9821 -0.66293,0 0,-9.2299 0.50702,0 6.47421,8.125 0,-8.1123 0.66294,0 0,9.2172 -0.61097,0 z"
         style="font-size:13px;font-variant:normal;font-weight:300;font-stretch:normal;line-height:150%;letter-spacing:4px;writing-mode:lr-tb;fill:#99999f;font-family:Raleway;-inkscape-font-specification:Raleway Light;fill-opacity:0.94117647"
         id="path3089" />
      <path
         d="m 247.41191,1014.8167 -3.38013,0 0,8.632 -0.66293,0 0,-8.632 -3.38013,0 0,-0.5979 7.42319,0 z"
         style="font-size:13px;font-variant:normal;font-weight:300;font-stretch:normal;line-height:150%;letter-spacing:4px;writing-mode:lr-tb;fill:#99999f;font-family:Raleway;-inkscape-font-specification:Raleway Light;fill-opacity:0.94117647"
         id="path3091" />
    </g>
    <g
       id="g3013"
       transform="matrix(0.08287937,0,0,0.08287937,25.346492,915.38258)"
       style="fill:#202020;fill-opacity:1">
      <path
         id="path3015"
         d="m 906.57101,962.66672 5.37801,-2.229 -18.143,-43.641 14.46999,-6.085 -2.019,-4.742 -26.41599,-62.711 -14.156,5.953 -29.061,-69.199 h 13.995 v -50.965 l -22.611,0 v 13.652 h -6.912 l -29,-69.683 c 7.033,-9.435 11.23,-21.109 11.23,-33.782 0,-23.006 -13.692,-42.742 -33.328,-51.682 v -65.83 h -45.002 v 64.921 c -20.736,8.476 -35.346,28.797 -35.367,52.59 0.01,12.048 3.834,23.197 10.231,32.41 l -71.368,171.636 -13.521,-5.691 -28.414,67.443 4.752,2.019 9.061,3.813 -18.284,43.893 12.199,5.065 -24.388,69.90498 9.487,3.996 32.773,-66.46498 14.147,5.883 1.978,-4.742 80.369,-193.31 h 74.083 l 85.021,203.723 10.231,-4.238 15.166,37.47598 27.83899,19.676 v -33.41898 l -14.42,-35.64 z m -137.78299,-323.433 c 0,12.3 -9.979,22.29 -22.289,22.29 -12.33,0 -22.31,-9.99 -22.31,-22.29 0,-12.31 9.979,-22.299 22.31,-22.299 12.31,0 22.289,9.989 22.289,22.299 z m -27.143,56.596 c 1.584,0.151 3.209,0.232 4.854,0.232 1.1,0 2.189,-0.111 3.279,-0.161 l 19.999,49.351 -48.625,0 20.493,-49.422 z"
         inkscape:connector-curvature="0"
         style="fill:#202020;fill-opacity:1" />
    </g>
    <g
       style="font-size:40px;font-style:normal;font-weight:normal;line-height:150%;letter-spacing:0px;word-spacing:0px;fill:#202020;fill-opacity:1;stroke:none;display:inline;font-family:Sans"
       id="text2987-8">
      <path
         d="m 60.066601,990.72797 0,-14.90982 6.21643,0 c 0.629752,1e-5 1.210593,0.13299 1.742524,0.39894 0.531911,0.26597 0.986927,0.61941 1.365051,1.06031 0.378101,0.44094 0.675678,0.93793 0.892731,1.49099 0.217028,0.55308 0.325549,1.10967 0.325561,1.66978 -1.2e-5,0.54603 -0.08407,1.07453 -0.252182,1.58551 -0.168133,0.511 -0.406109,0.96943 -0.713928,1.37531 -0.307842,0.40589 -0.678798,0.74181 -1.112869,1.00776 -0.434092,0.26597 -0.910258,0.44103 -1.428498,0.5252 l 3.717041,5.79602 -1.2388,0 -3.611938,-5.62812 -4.830231,0 0,5.62812 z m 1.070892,-6.61505 5.229492,0 c 0.475944,0 0.909919,-0.10499 1.301926,-0.31499 0.391988,-0.20999 0.72791,-0.48652 1.007767,-0.82961 0.279835,-0.34307 0.493351,-0.73507 0.640548,-1.17599 0.147175,-0.44091 0.220768,-0.8923 0.22078,-1.35416 -1.2e-5,-0.47594 -0.0876,-0.93448 -0.262757,-1.37562 -0.175181,-0.44112 -0.413264,-0.8297 -0.714248,-1.16575 -0.301005,-0.33601 -0.650919,-0.6055 -1.049744,-0.80845 -0.398843,-0.20293 -0.8294,-0.3044 -1.291672,-0.30441 l -5.082092,0 z"
         style="font-size:21px;font-variant:normal;font-weight:300;font-stretch:normal;text-align:start;line-height:150%;letter-spacing:3.5px;writing-mode:lr-tb;text-anchor:start;fill:#202020;font-family:Raleway;-inkscape-font-specification:Raleway Light"
         id="path3107" />
    </g>
    <rect
       style="fill:#000000;fill-opacity:1;stroke:none"
       id="rect3897"
       width="12"
       height="0.5"
       x="60"
       y="1002.6013" />
    <path
       style="fill:#000000;fill-opacity:1;stroke:none;display:inline"
       d="m 103,1002.5897 0,0.5 89,0 0,-0.5 -89,0 z"
       id="rect3897-2"
       inkscape:connector-curvature="0" />
  </g>
</svg>
